<?xml version="1.0" encoding="utf-8" standalone="no"?>
<!DOCTYPE svg PUBLIC "-//W3C//DTD SVG 1.1//EN"
  "http://www.w3.org/Graphics/SVG/1.1/DTD/svg11.dtd">
<svg xmlns:xlink="http://www.w3.org/1999/xlink" width="514.558281pt" height="428.828pt" viewBox="0 0 514.558281 428.828" xmlns="http://www.w3.org/2000/svg" version="1.1">
 <metadata>
  <rdf:RDF xmlns:dc="http://purl.org/dc/elements/1.1/" xmlns:cc="http://creativecommons.org/ns#" xmlns:rdf="http://www.w3.org/1999/02/22-rdf-syntax-ns#">
   <cc:Work>
    <dc:type rdf:resource="http://purl.org/dc/dcmitype/StillImage"/>
    <dc:date>2026-05-08T15:33:50.660258</dc:date>
    <dc:format>image/svg+xml</dc:format>
    <dc:creator>
     <cc:Agent>
      <dc:title>Matplotlib v3.10.8, https://matplotlib.org/</dc:title>
     </cc:Agent>
    </dc:creator>
   </cc:Work>
  </rdf:RDF>
 </metadata>
 <defs>
  <style type="text/css">*{stroke-linejoin: round; stroke-linecap: butt}</style>
 </defs>
 <g id="figure_1">
  <g id="patch_1">
   <path d="M 0 428.828 
L 514.558281 428.828 
L 514.558281 0 
L 0 0 
z
" style="fill: #ffffff"/>
  </g>
  <g id="axes_1">
   <g id="patch_2">
    <path d="M 41.999531 188.291443 
L 251.813281 188.291443 
L 251.813281 59.1675 
L 41.999531 59.1675 
z
" style="fill: #ffffff"/>
   </g>
   <g id="FillBetweenPolyCollection_1">
    <defs>
     <path id="m1e2e6fd34e" d="M 51.53652 -265.365159 
L 51.53652 -251.296885 
L 99.221463 -327.34161 
L 146.906406 -337.227425 
L 194.591349 -342.360444 
L 242.276293 -342.550555 
L 242.276293 -353.577041 
L 242.276293 -353.577041 
L 194.591349 -353.767152 
L 146.906406 -358.900171 
L 99.221463 -351.295699 
L 51.53652 -265.365159 
z
"/>
    </defs>
    <g clip-path="url(#pe56c3b4e15)">
     <use xlink:href="#m1e2e6fd34e" x="0" y="428.828" style="fill: #3e7cb1; fill-opacity: 0.1"/>
    </g>
   </g>
   <g id="matplotlib.axis_1">
    <g id="xtick_1">
     <g id="line2d_1">
      <path d="M 51.53652 188.291443 
L 51.53652 59.1675 
" clip-path="url(#pe56c3b4e15)" style="fill: none; stroke: #e5e5e5; stroke-opacity: 0.85; stroke-width: 0.8; stroke-linecap: square"/>
     </g>
     <g id="line2d_2">
      <defs>
       <path id="mf419b81e5f" d="M 0 0 
L 0 3.5 
" style="stroke: #000000; stroke-width: 0.8"/>
      </defs>
      <g>
       <use xlink:href="#mf419b81e5f" x="51.53652" y="188.291443" style="stroke: #000000; stroke-width: 0.8"/>
      </g>
     </g>
    </g>
    <g id="xtick_2">
     <g id="line2d_3">
      <path d="M 99.221463 188.291443 
L 99.221463 59.1675 
" clip-path="url(#pe56c3b4e15)" style="fill: none; stroke: #e5e5e5; stroke-opacity: 0.85; stroke-width: 0.8; stroke-linecap: square"/>
     </g>
     <g id="line2d_4">
      <g>
       <use xlink:href="#mf419b81e5f" x="99.221463" y="188.291443" style="stroke: #000000; stroke-width: 0.8"/>
      </g>
     </g>
    </g>
    <g id="xtick_3">
     <g id="line2d_5">
      <path d="M 146.906406 188.291443 
L 146.906406 59.1675 
" clip-path="url(#pe56c3b4e15)" style="fill: none; stroke: #e5e5e5; stroke-opacity: 0.85; stroke-width: 0.8; stroke-linecap: square"/>
     </g>
     <g id="line2d_6">
      <g>
       <use xlink:href="#mf419b81e5f" x="146.906406" y="188.291443" style="stroke: #000000; stroke-width: 0.8"/>
      </g>
     </g>
    </g>
    <g id="xtick_4">
     <g id="line2d_7">
      <path d="M 194.591349 188.291443 
L 194.591349 59.1675 
" clip-path="url(#pe56c3b4e15)" style="fill: none; stroke: #e5e5e5; stroke-opacity: 0.85; stroke-width: 0.8; stroke-linecap: square"/>
     </g>
     <g id="line2d_8">
      <g>
       <use xlink:href="#mf419b81e5f" x="194.591349" y="188.291443" style="stroke: #000000; stroke-width: 0.8"/>
      </g>
     </g>
    </g>
    <g id="xtick_5">
     <g id="line2d_9">
      <path d="M 242.276293 188.291443 
L 242.276293 59.1675 
" clip-path="url(#pe56c3b4e15)" style="fill: none; stroke: #e5e5e5; stroke-opacity: 0.85; stroke-width: 0.8; stroke-linecap: square"/>
     </g>
     <g id="line2d_10">
      <g>
       <use xlink:href="#mf419b81e5f" x="242.276293" y="188.291443" style="stroke: #000000; stroke-width: 0.8"/>
      </g>
     </g>
    </g>
   </g>
   <g id="matplotlib.axis_2">
    <g id="ytick_1">
     <g id="line2d_11">
      <path d="M 41.999531 169.73653 
L 251.813281 169.73653 
" clip-path="url(#pe56c3b4e15)" style="fill: none; stroke: #e5e5e5; stroke-opacity: 0.85; stroke-width: 0.8; stroke-linecap: square"/>
     </g>
     <g id="line2d_12">
      <defs>
       <path id="m614e3b88cd" d="M 0 0 
L -3.5 0 
" style="stroke: #000000; stroke-width: 0.8"/>
      </defs>
      <g>
       <use xlink:href="#m614e3b88cd" x="41.999531" y="169.73653" style="stroke: #000000; stroke-width: 0.8"/>
      </g>
     </g>
     <g id="text_1">
      <!-- 0.93 -->
      <g transform="translate(19.430781 172.599655) scale(0.08 -0.08)">
       <defs>
        <path id="ArialMT-30" d="M 266 2259 
Q 266 3072 433 3567 
Q 600 4063 929 4331 
Q 1259 4600 1759 4600 
Q 2128 4600 2406 4451 
Q 2684 4303 2865 4023 
Q 3047 3744 3150 3342 
Q 3253 2941 3253 2259 
Q 3253 1453 3087 958 
Q 2922 463 2592 192 
Q 2263 -78 1759 -78 
Q 1097 -78 719 397 
Q 266 969 266 2259 
z
M 844 2259 
Q 844 1131 1108 757 
Q 1372 384 1759 384 
Q 2147 384 2411 759 
Q 2675 1134 2675 2259 
Q 2675 3391 2411 3762 
Q 2147 4134 1753 4134 
Q 1366 4134 1134 3806 
Q 844 3388 844 2259 
z
" transform="scale(0.015625)"/>
        <path id="ArialMT-2e" d="M 581 0 
L 581 641 
L 1222 641 
L 1222 0 
L 581 0 
z
" transform="scale(0.015625)"/>
        <path id="ArialMT-39" d="M 350 1059 
L 891 1109 
Q 959 728 1153 556 
Q 1347 384 1650 384 
Q 1909 384 2104 503 
Q 2300 622 2425 820 
Q 2550 1019 2634 1356 
Q 2719 1694 2719 2044 
Q 2719 2081 2716 2156 
Q 2547 1888 2255 1720 
Q 1963 1553 1622 1553 
Q 1053 1553 659 1965 
Q 266 2378 266 3053 
Q 266 3750 677 4175 
Q 1088 4600 1706 4600 
Q 2153 4600 2523 4359 
Q 2894 4119 3086 3673 
Q 3278 3228 3278 2384 
Q 3278 1506 3087 986 
Q 2897 466 2520 194 
Q 2144 -78 1638 -78 
Q 1100 -78 759 220 
Q 419 519 350 1059 
z
M 2653 3081 
Q 2653 3566 2395 3850 
Q 2138 4134 1775 4134 
Q 1400 4134 1122 3828 
Q 844 3522 844 3034 
Q 844 2597 1108 2323 
Q 1372 2050 1759 2050 
Q 2150 2050 2401 2323 
Q 2653 2597 2653 3081 
z
" transform="scale(0.015625)"/>
        <path id="ArialMT-33" d="M 269 1209 
L 831 1284 
Q 928 806 1161 595 
Q 1394 384 1728 384 
Q 2125 384 2398 659 
Q 2672 934 2672 1341 
Q 2672 1728 2419 1979 
Q 2166 2231 1775 2231 
Q 1616 2231 1378 2169 
L 1441 2663 
Q 1497 2656 1531 2656 
Q 1891 2656 2178 2843 
Q 2466 3031 2466 3422 
Q 2466 3731 2256 3934 
Q 2047 4138 1716 4138 
Q 1388 4138 1169 3931 
Q 950 3725 888 3313 
L 325 3413 
Q 428 3978 793 4289 
Q 1159 4600 1703 4600 
Q 2078 4600 2393 4439 
Q 2709 4278 2876 4000 
Q 3044 3722 3044 3409 
Q 3044 3113 2884 2869 
Q 2725 2625 2413 2481 
Q 2819 2388 3044 2092 
Q 3269 1797 3269 1353 
Q 3269 753 2831 336 
Q 2394 -81 1725 -81 
Q 1122 -81 723 278 
Q 325 638 269 1209 
z
" transform="scale(0.015625)"/>
       </defs>
       <use xlink:href="#ArialMT-30"/>
       <use xlink:href="#ArialMT-2e" transform="translate(55.615234 0)"/>
       <use xlink:href="#ArialMT-39" transform="translate(83.398438 0)"/>
       <use xlink:href="#ArialMT-33" transform="translate(139.013672 0)"/>
      </g>
     </g>
    </g>
    <g id="ytick_2">
     <g id="line2d_13">
      <path d="M 41.999531 150.725349 
L 251.813281 150.725349 
" clip-path="url(#pe56c3b4e15)" style="fill: none; stroke: #e5e5e5; stroke-opacity: 0.85; stroke-width: 0.8; stroke-linecap: square"/>
     </g>
     <g id="line2d_14">
      <g>
       <use xlink:href="#m614e3b88cd" x="41.999531" y="150.725349" style="stroke: #000000; stroke-width: 0.8"/>
      </g>
     </g>
     <g id="text_2">
      <!-- 0.94 -->
      <g transform="translate(19.430781 153.588474) scale(0.08 -0.08)">
       <defs>
        <path id="ArialMT-34" d="M 2069 0 
L 2069 1097 
L 81 1097 
L 81 1613 
L 2172 4581 
L 2631 4581 
L 2631 1613 
L 3250 1613 
L 3250 1097 
L 2631 1097 
L 2631 0 
L 2069 0 
z
M 2069 1613 
L 2069 3678 
L 634 1613 
L 2069 1613 
z
" transform="scale(0.015625)"/>
       </defs>
       <use xlink:href="#ArialMT-30"/>
       <use xlink:href="#ArialMT-2e" transform="translate(55.615234 0)"/>
       <use xlink:href="#ArialMT-39" transform="translate(83.398438 0)"/>
       <use xlink:href="#ArialMT-34" transform="translate(139.013672 0)"/>
      </g>
     </g>
    </g>
    <g id="ytick_3">
     <g id="line2d_15">
      <path d="M 41.999531 131.714168 
L 251.813281 131.714168 
" clip-path="url(#pe56c3b4e15)" style="fill: none; stroke: #e5e5e5; stroke-opacity: 0.85; stroke-width: 0.8; stroke-linecap: square"/>
     </g>
     <g id="line2d_16">
      <g>
       <use xlink:href="#m614e3b88cd" x="41.999531" y="131.714168" style="stroke: #000000; stroke-width: 0.8"/>
      </g>
     </g>
     <g id="text_3">
      <!-- 0.95 -->
      <g transform="translate(19.430781 134.577293) scale(0.08 -0.08)">
       <defs>
        <path id="ArialMT-35" d="M 266 1200 
L 856 1250 
Q 922 819 1161 601 
Q 1400 384 1738 384 
Q 2144 384 2425 690 
Q 2706 997 2706 1503 
Q 2706 1984 2436 2262 
Q 2166 2541 1728 2541 
Q 1456 2541 1237 2417 
Q 1019 2294 894 2097 
L 366 2166 
L 809 4519 
L 3088 4519 
L 3088 3981 
L 1259 3981 
L 1013 2750 
Q 1425 3038 1878 3038 
Q 2478 3038 2890 2622 
Q 3303 2206 3303 1553 
Q 3303 931 2941 478 
Q 2500 -78 1738 -78 
Q 1113 -78 717 272 
Q 322 622 266 1200 
z
" transform="scale(0.015625)"/>
       </defs>
       <use xlink:href="#ArialMT-30"/>
       <use xlink:href="#ArialMT-2e" transform="translate(55.615234 0)"/>
       <use xlink:href="#ArialMT-39" transform="translate(83.398438 0)"/>
       <use xlink:href="#ArialMT-35" transform="translate(139.013672 0)"/>
      </g>
     </g>
    </g>
    <g id="ytick_4">
     <g id="line2d_17">
      <path d="M 41.999531 112.702987 
L 251.813281 112.702987 
" clip-path="url(#pe56c3b4e15)" style="fill: none; stroke: #e5e5e5; stroke-opacity: 0.85; stroke-width: 0.8; stroke-linecap: square"/>
     </g>
     <g id="line2d_18">
      <g>
       <use xlink:href="#m614e3b88cd" x="41.999531" y="112.702987" style="stroke: #000000; stroke-width: 0.8"/>
      </g>
     </g>
     <g id="text_4">
      <!-- 0.96 -->
      <g transform="translate(19.430781 115.566112) scale(0.08 -0.08)">
       <defs>
        <path id="ArialMT-36" d="M 3184 3459 
L 2625 3416 
Q 2550 3747 2413 3897 
Q 2184 4138 1850 4138 
Q 1581 4138 1378 3988 
Q 1113 3794 959 3422 
Q 806 3050 800 2363 
Q 1003 2672 1297 2822 
Q 1591 2972 1913 2972 
Q 2475 2972 2870 2558 
Q 3266 2144 3266 1488 
Q 3266 1056 3080 686 
Q 2894 316 2569 119 
Q 2244 -78 1831 -78 
Q 1128 -78 684 439 
Q 241 956 241 2144 
Q 241 3472 731 4075 
Q 1159 4600 1884 4600 
Q 2425 4600 2770 4297 
Q 3116 3994 3184 3459 
z
M 888 1484 
Q 888 1194 1011 928 
Q 1134 663 1356 523 
Q 1578 384 1822 384 
Q 2178 384 2434 671 
Q 2691 959 2691 1453 
Q 2691 1928 2437 2201 
Q 2184 2475 1800 2475 
Q 1419 2475 1153 2201 
Q 888 1928 888 1484 
z
" transform="scale(0.015625)"/>
       </defs>
       <use xlink:href="#ArialMT-30"/>
       <use xlink:href="#ArialMT-2e" transform="translate(55.615234 0)"/>
       <use xlink:href="#ArialMT-39" transform="translate(83.398438 0)"/>
       <use xlink:href="#ArialMT-36" transform="translate(139.013672 0)"/>
      </g>
     </g>
    </g>
    <g id="ytick_5">
     <g id="line2d_19">
      <path d="M 41.999531 93.691805 
L 251.813281 93.691805 
" clip-path="url(#pe56c3b4e15)" style="fill: none; stroke: #e5e5e5; stroke-opacity: 0.85; stroke-width: 0.8; stroke-linecap: square"/>
     </g>
     <g id="line2d_20">
      <g>
       <use xlink:href="#m614e3b88cd" x="41.999531" y="93.691805" style="stroke: #000000; stroke-width: 0.8"/>
      </g>
     </g>
     <g id="text_5">
      <!-- 0.97 -->
      <g transform="translate(19.430781 96.55493) scale(0.08 -0.08)">
       <defs>
        <path id="ArialMT-37" d="M 303 3981 
L 303 4522 
L 3269 4522 
L 3269 4084 
Q 2831 3619 2401 2847 
Q 1972 2075 1738 1259 
Q 1569 684 1522 0 
L 944 0 
Q 953 541 1156 1306 
Q 1359 2072 1739 2783 
Q 2119 3494 2547 3981 
L 303 3981 
z
" transform="scale(0.015625)"/>
       </defs>
       <use xlink:href="#ArialMT-30"/>
       <use xlink:href="#ArialMT-2e" transform="translate(55.615234 0)"/>
       <use xlink:href="#ArialMT-39" transform="translate(83.398438 0)"/>
       <use xlink:href="#ArialMT-37" transform="translate(139.013672 0)"/>
      </g>
     </g>
    </g>
    <g id="ytick_6">
     <g id="line2d_21">
      <path d="M 41.999531 74.680624 
L 251.813281 74.680624 
" clip-path="url(#pe56c3b4e15)" style="fill: none; stroke: #e5e5e5; stroke-opacity: 0.85; stroke-width: 0.8; stroke-linecap: square"/>
     </g>
     <g id="line2d_22">
      <g>
       <use xlink:href="#m614e3b88cd" x="41.999531" y="74.680624" style="stroke: #000000; stroke-width: 0.8"/>
      </g>
     </g>
     <g id="text_6">
      <!-- 0.98 -->
      <g transform="translate(19.430781 77.543749) scale(0.08 -0.08)">
       <defs>
        <path id="ArialMT-38" d="M 1131 2484 
Q 781 2613 612 2850 
Q 444 3088 444 3419 
Q 444 3919 803 4259 
Q 1163 4600 1759 4600 
Q 2359 4600 2725 4251 
Q 3091 3903 3091 3403 
Q 3091 3084 2923 2848 
Q 2756 2613 2416 2484 
Q 2838 2347 3058 2040 
Q 3278 1734 3278 1309 
Q 3278 722 2862 322 
Q 2447 -78 1769 -78 
Q 1091 -78 675 323 
Q 259 725 259 1325 
Q 259 1772 486 2073 
Q 713 2375 1131 2484 
z
M 1019 3438 
Q 1019 3113 1228 2906 
Q 1438 2700 1772 2700 
Q 2097 2700 2305 2904 
Q 2513 3109 2513 3406 
Q 2513 3716 2298 3927 
Q 2084 4138 1766 4138 
Q 1444 4138 1231 3931 
Q 1019 3725 1019 3438 
z
M 838 1322 
Q 838 1081 952 856 
Q 1066 631 1291 507 
Q 1516 384 1775 384 
Q 2178 384 2440 643 
Q 2703 903 2703 1303 
Q 2703 1709 2433 1975 
Q 2163 2241 1756 2241 
Q 1359 2241 1098 1978 
Q 838 1716 838 1322 
z
" transform="scale(0.015625)"/>
       </defs>
       <use xlink:href="#ArialMT-30"/>
       <use xlink:href="#ArialMT-2e" transform="translate(55.615234 0)"/>
       <use xlink:href="#ArialMT-39" transform="translate(83.398438 0)"/>
       <use xlink:href="#ArialMT-38" transform="translate(139.013672 0)"/>
      </g>
     </g>
    </g>
    <g id="text_7">
     <!-- AUC -->
     <g transform="translate(13.642031 133.2308) rotate(-90) scale(0.09 -0.09)">
      <defs>
       <path id="ArialMT-41" d="M -9 0 
L 1750 4581 
L 2403 4581 
L 4278 0 
L 3588 0 
L 3053 1388 
L 1138 1388 
L 634 0 
L -9 0 
z
M 1313 1881 
L 2866 1881 
L 2388 3150 
Q 2169 3728 2063 4100 
Q 1975 3659 1816 3225 
L 1313 1881 
z
" transform="scale(0.015625)"/>
       <path id="ArialMT-55" d="M 3500 4581 
L 4106 4581 
L 4106 1934 
Q 4106 1244 3950 837 
Q 3794 431 3386 176 
Q 2978 -78 2316 -78 
Q 1672 -78 1262 144 
Q 853 366 678 786 
Q 503 1206 503 1934 
L 503 4581 
L 1109 4581 
L 1109 1938 
Q 1109 1341 1220 1058 
Q 1331 775 1601 622 
Q 1872 469 2263 469 
Q 2931 469 3215 772 
Q 3500 1075 3500 1938 
L 3500 4581 
z
" transform="scale(0.015625)"/>
       <path id="ArialMT-43" d="M 3763 1606 
L 4369 1453 
Q 4178 706 3683 314 
Q 3188 -78 2472 -78 
Q 1731 -78 1267 223 
Q 803 525 561 1097 
Q 319 1669 319 2325 
Q 319 3041 592 3573 
Q 866 4106 1370 4382 
Q 1875 4659 2481 4659 
Q 3169 4659 3637 4309 
Q 4106 3959 4291 3325 
L 3694 3184 
Q 3534 3684 3231 3912 
Q 2928 4141 2469 4141 
Q 1941 4141 1586 3887 
Q 1231 3634 1087 3207 
Q 944 2781 944 2328 
Q 944 1744 1114 1308 
Q 1284 872 1643 656 
Q 2003 441 2422 441 
Q 2931 441 3284 734 
Q 3638 1028 3763 1606 
z
" transform="scale(0.015625)"/>
      </defs>
      <use xlink:href="#ArialMT-41"/>
      <use xlink:href="#ArialMT-55" transform="translate(66.699219 0)"/>
      <use xlink:href="#ArialMT-43" transform="translate(138.916016 0)"/>
     </g>
    </g>
   </g>
   <g id="line2d_23">
    <path d="M 51.53652 170.496978 
L 99.221463 89.509345 
L 146.906406 80.764202 
L 194.591349 80.764202 
L 242.276293 80.764202 
" clip-path="url(#pe56c3b4e15)" style="fill: none; stroke-dasharray: 5.365,2.32; stroke-dashoffset: 0; stroke: #4f4f4f; stroke-width: 1.45"/>
   </g>
   <g id="patch_3">
    <path d="M 41.999531 188.291443 
L 41.999531 59.1675 
" style="fill: none; stroke: #000000; stroke-width: 0.8; stroke-linejoin: miter; stroke-linecap: square"/>
   </g>
   <g id="patch_4">
    <path d="M 41.999531 188.291443 
L 251.813281 188.291443 
" style="fill: none; stroke: #000000; stroke-width: 0.8; stroke-linejoin: miter; stroke-linecap: square"/>
   </g>
   <g id="PathCollection_1">
    <defs>
     <path id="C0_0_17d8f7a5ae" d="M 0 2.645751 
C 0.701661 2.645751 1.374679 2.366978 1.870829 1.870829 
C 2.366978 1.374679 2.645751 0.701661 2.645751 -0 
C 2.645751 -0.701661 2.366978 -1.374679 1.870829 -1.870829 
C 1.374679 -2.366978 0.701661 -2.645751 0 -2.645751 
C -0.701661 -2.645751 -1.374679 -2.366978 -1.870829 -1.870829 
C -2.366978 -1.374679 -2.645751 -0.701661 -2.645751 0 
C -2.645751 0.701661 -2.366978 1.374679 -1.870829 1.870829 
C -1.374679 2.366978 -0.701661 2.645751 0 2.645751 
z
"/>
    </defs>
    <g clip-path="url(#pe56c3b4e15)">
     <use xlink:href="#C0_0_17d8f7a5ae" x="51.53652" y="170.496978" style="fill: #3e7cb1; stroke: #ffffff; stroke-width: 0.5"/>
    </g>
    <g clip-path="url(#pe56c3b4e15)">
     <use xlink:href="#C0_0_17d8f7a5ae" x="99.221463" y="89.509345" style="fill: #3db27d; stroke: #ffffff; stroke-width: 0.5"/>
    </g>
    <g clip-path="url(#pe56c3b4e15)">
     <use xlink:href="#C0_0_17d8f7a5ae" x="146.906406" y="80.764202" style="fill: #d64f4f; stroke: #ffffff; stroke-width: 0.5"/>
    </g>
    <g clip-path="url(#pe56c3b4e15)">
     <use xlink:href="#C0_0_17d8f7a5ae" x="194.591349" y="80.764202" style="fill: #7a68b3; stroke: #ffffff; stroke-width: 0.5"/>
    </g>
    <g clip-path="url(#pe56c3b4e15)">
     <use xlink:href="#C0_0_17d8f7a5ae" x="242.276293" y="80.764202" style="fill: #38b7c9; stroke: #ffffff; stroke-width: 0.5"/>
    </g>
   </g>
   <g id="text_8">
    <!-- Glass Forming Ability -->
    <g transform="translate(102.297227 53.1675) scale(0.095 -0.095)">
     <defs>
      <path id="ArialMT-47" d="M 2638 1797 
L 2638 2334 
L 4578 2338 
L 4578 638 
Q 4131 281 3656 101 
Q 3181 -78 2681 -78 
Q 2006 -78 1454 211 
Q 903 500 622 1047 
Q 341 1594 341 2269 
Q 341 2938 620 3517 
Q 900 4097 1425 4378 
Q 1950 4659 2634 4659 
Q 3131 4659 3532 4498 
Q 3934 4338 4162 4050 
Q 4391 3763 4509 3300 
L 3963 3150 
Q 3859 3500 3706 3700 
Q 3553 3900 3268 4020 
Q 2984 4141 2638 4141 
Q 2222 4141 1919 4014 
Q 1616 3888 1430 3681 
Q 1244 3475 1141 3228 
Q 966 2803 966 2306 
Q 966 1694 1177 1281 
Q 1388 869 1791 669 
Q 2194 469 2647 469 
Q 3041 469 3416 620 
Q 3791 772 3984 944 
L 3984 1797 
L 2638 1797 
z
" transform="scale(0.015625)"/>
      <path id="ArialMT-6c" d="M 409 0 
L 409 4581 
L 972 4581 
L 972 0 
L 409 0 
z
" transform="scale(0.015625)"/>
      <path id="ArialMT-61" d="M 2588 409 
Q 2275 144 1986 34 
Q 1697 -75 1366 -75 
Q 819 -75 525 192 
Q 231 459 231 875 
Q 231 1119 342 1320 
Q 453 1522 633 1644 
Q 813 1766 1038 1828 
Q 1203 1872 1538 1913 
Q 2219 1994 2541 2106 
Q 2544 2222 2544 2253 
Q 2544 2597 2384 2738 
Q 2169 2928 1744 2928 
Q 1347 2928 1158 2789 
Q 969 2650 878 2297 
L 328 2372 
Q 403 2725 575 2942 
Q 747 3159 1072 3276 
Q 1397 3394 1825 3394 
Q 2250 3394 2515 3294 
Q 2781 3194 2906 3042 
Q 3031 2891 3081 2659 
Q 3109 2516 3109 2141 
L 3109 1391 
Q 3109 606 3145 398 
Q 3181 191 3288 0 
L 2700 0 
Q 2613 175 2588 409 
z
M 2541 1666 
Q 2234 1541 1622 1453 
Q 1275 1403 1131 1340 
Q 988 1278 909 1158 
Q 831 1038 831 891 
Q 831 666 1001 516 
Q 1172 366 1500 366 
Q 1825 366 2078 508 
Q 2331 650 2450 897 
Q 2541 1088 2541 1459 
L 2541 1666 
z
" transform="scale(0.015625)"/>
      <path id="ArialMT-73" d="M 197 991 
L 753 1078 
Q 800 744 1014 566 
Q 1228 388 1613 388 
Q 2000 388 2187 545 
Q 2375 703 2375 916 
Q 2375 1106 2209 1216 
Q 2094 1291 1634 1406 
Q 1016 1563 777 1677 
Q 538 1791 414 1992 
Q 291 2194 291 2438 
Q 291 2659 392 2848 
Q 494 3038 669 3163 
Q 800 3259 1026 3326 
Q 1253 3394 1513 3394 
Q 1903 3394 2198 3281 
Q 2494 3169 2634 2976 
Q 2775 2784 2828 2463 
L 2278 2388 
Q 2241 2644 2061 2787 
Q 1881 2931 1553 2931 
Q 1166 2931 1000 2803 
Q 834 2675 834 2503 
Q 834 2394 903 2306 
Q 972 2216 1119 2156 
Q 1203 2125 1616 2013 
Q 2213 1853 2448 1751 
Q 2684 1650 2818 1456 
Q 2953 1263 2953 975 
Q 2953 694 2789 445 
Q 2625 197 2315 61 
Q 2006 -75 1616 -75 
Q 969 -75 630 194 
Q 291 463 197 991 
z
" transform="scale(0.015625)"/>
      <path id="ArialMT-20" transform="scale(0.015625)"/>
      <path id="ArialMT-46" d="M 525 0 
L 525 4581 
L 3616 4581 
L 3616 4041 
L 1131 4041 
L 1131 2622 
L 3281 2622 
L 3281 2081 
L 1131 2081 
L 1131 0 
L 525 0 
z
" transform="scale(0.015625)"/>
      <path id="ArialMT-6f" d="M 213 1659 
Q 213 2581 725 3025 
Q 1153 3394 1769 3394 
Q 2453 3394 2887 2945 
Q 3322 2497 3322 1706 
Q 3322 1066 3130 698 
Q 2938 331 2570 128 
Q 2203 -75 1769 -75 
Q 1072 -75 642 372 
Q 213 819 213 1659 
z
M 791 1659 
Q 791 1022 1069 705 
Q 1347 388 1769 388 
Q 2188 388 2466 706 
Q 2744 1025 2744 1678 
Q 2744 2294 2464 2611 
Q 2184 2928 1769 2928 
Q 1347 2928 1069 2612 
Q 791 2297 791 1659 
z
" transform="scale(0.015625)"/>
      <path id="ArialMT-72" d="M 416 0 
L 416 3319 
L 922 3319 
L 922 2816 
Q 1116 3169 1280 3281 
Q 1444 3394 1641 3394 
Q 1925 3394 2219 3213 
L 2025 2691 
Q 1819 2813 1613 2813 
Q 1428 2813 1281 2702 
Q 1134 2591 1072 2394 
Q 978 2094 978 1738 
L 978 0 
L 416 0 
z
" transform="scale(0.015625)"/>
      <path id="ArialMT-6d" d="M 422 0 
L 422 3319 
L 925 3319 
L 925 2853 
Q 1081 3097 1340 3245 
Q 1600 3394 1931 3394 
Q 2300 3394 2536 3241 
Q 2772 3088 2869 2813 
Q 3263 3394 3894 3394 
Q 4388 3394 4653 3120 
Q 4919 2847 4919 2278 
L 4919 0 
L 4359 0 
L 4359 2091 
Q 4359 2428 4304 2576 
Q 4250 2725 4106 2815 
Q 3963 2906 3769 2906 
Q 3419 2906 3187 2673 
Q 2956 2441 2956 1928 
L 2956 0 
L 2394 0 
L 2394 2156 
Q 2394 2531 2256 2718 
Q 2119 2906 1806 2906 
Q 1569 2906 1367 2781 
Q 1166 2656 1075 2415 
Q 984 2175 984 1722 
L 984 0 
L 422 0 
z
" transform="scale(0.015625)"/>
      <path id="ArialMT-69" d="M 425 3934 
L 425 4581 
L 988 4581 
L 988 3934 
L 425 3934 
z
M 425 0 
L 425 3319 
L 988 3319 
L 988 0 
L 425 0 
z
" transform="scale(0.015625)"/>
      <path id="ArialMT-6e" d="M 422 0 
L 422 3319 
L 928 3319 
L 928 2847 
Q 1294 3394 1984 3394 
Q 2284 3394 2536 3286 
Q 2788 3178 2913 3003 
Q 3038 2828 3088 2588 
Q 3119 2431 3119 2041 
L 3119 0 
L 2556 0 
L 2556 2019 
Q 2556 2363 2490 2533 
Q 2425 2703 2258 2804 
Q 2091 2906 1866 2906 
Q 1506 2906 1245 2678 
Q 984 2450 984 1813 
L 984 0 
L 422 0 
z
" transform="scale(0.015625)"/>
      <path id="ArialMT-67" d="M 319 -275 
L 866 -356 
Q 900 -609 1056 -725 
Q 1266 -881 1628 -881 
Q 2019 -881 2231 -725 
Q 2444 -569 2519 -288 
Q 2563 -116 2559 434 
Q 2191 0 1641 0 
Q 956 0 581 494 
Q 206 988 206 1678 
Q 206 2153 378 2554 
Q 550 2956 876 3175 
Q 1203 3394 1644 3394 
Q 2231 3394 2613 2919 
L 2613 3319 
L 3131 3319 
L 3131 450 
Q 3131 -325 2973 -648 
Q 2816 -972 2473 -1159 
Q 2131 -1347 1631 -1347 
Q 1038 -1347 672 -1080 
Q 306 -813 319 -275 
z
M 784 1719 
Q 784 1066 1043 766 
Q 1303 466 1694 466 
Q 2081 466 2343 764 
Q 2606 1063 2606 1700 
Q 2606 2309 2336 2618 
Q 2066 2928 1684 2928 
Q 1309 2928 1046 2623 
Q 784 2319 784 1719 
z
" transform="scale(0.015625)"/>
      <path id="ArialMT-62" d="M 941 0 
L 419 0 
L 419 4581 
L 981 4581 
L 981 2947 
Q 1338 3394 1891 3394 
Q 2197 3394 2470 3270 
Q 2744 3147 2920 2923 
Q 3097 2700 3197 2384 
Q 3297 2069 3297 1709 
Q 3297 856 2875 390 
Q 2453 -75 1863 -75 
Q 1275 -75 941 416 
L 941 0 
z
M 934 1684 
Q 934 1088 1097 822 
Q 1363 388 1816 388 
Q 2184 388 2453 708 
Q 2722 1028 2722 1663 
Q 2722 2313 2464 2622 
Q 2206 2931 1841 2931 
Q 1472 2931 1203 2611 
Q 934 2291 934 1684 
z
" transform="scale(0.015625)"/>
      <path id="ArialMT-74" d="M 1650 503 
L 1731 6 
Q 1494 -44 1306 -44 
Q 1000 -44 831 53 
Q 663 150 594 308 
Q 525 466 525 972 
L 525 2881 
L 113 2881 
L 113 3319 
L 525 3319 
L 525 4141 
L 1084 4478 
L 1084 3319 
L 1650 3319 
L 1650 2881 
L 1084 2881 
L 1084 941 
Q 1084 700 1114 631 
Q 1144 563 1211 522 
Q 1278 481 1403 481 
Q 1497 481 1650 503 
z
" transform="scale(0.015625)"/>
      <path id="ArialMT-79" d="M 397 -1278 
L 334 -750 
Q 519 -800 656 -800 
Q 844 -800 956 -737 
Q 1069 -675 1141 -563 
Q 1194 -478 1313 -144 
Q 1328 -97 1363 -6 
L 103 3319 
L 709 3319 
L 1400 1397 
Q 1534 1031 1641 628 
Q 1738 1016 1872 1384 
L 2581 3319 
L 3144 3319 
L 1881 -56 
Q 1678 -603 1566 -809 
Q 1416 -1088 1222 -1217 
Q 1028 -1347 759 -1347 
Q 597 -1347 397 -1278 
z
" transform="scale(0.015625)"/>
     </defs>
     <use xlink:href="#ArialMT-47"/>
     <use xlink:href="#ArialMT-6c" transform="translate(77.783203 0)"/>
     <use xlink:href="#ArialMT-61" transform="translate(100 0)"/>
     <use xlink:href="#ArialMT-73" transform="translate(155.615234 0)"/>
     <use xlink:href="#ArialMT-73" transform="translate(205.615234 0)"/>
     <use xlink:href="#ArialMT-20" transform="translate(255.615234 0)"/>
     <use xlink:href="#ArialMT-46" transform="translate(283.398438 0)"/>
     <use xlink:href="#ArialMT-6f" transform="translate(344.482422 0)"/>
     <use xlink:href="#ArialMT-72" transform="translate(400.097656 0)"/>
     <use xlink:href="#ArialMT-6d" transform="translate(433.398438 0)"/>
     <use xlink:href="#ArialMT-69" transform="translate(516.699219 0)"/>
     <use xlink:href="#ArialMT-6e" transform="translate(538.916016 0)"/>
     <use xlink:href="#ArialMT-67" transform="translate(594.53125 0)"/>
     <use xlink:href="#ArialMT-20" transform="translate(650.146484 0)"/>
     <use xlink:href="#ArialMT-41" transform="translate(672.429688 0)"/>
     <use xlink:href="#ArialMT-62" transform="translate(739.128906 0)"/>
     <use xlink:href="#ArialMT-69" transform="translate(794.744141 0)"/>
     <use xlink:href="#ArialMT-6c" transform="translate(816.960938 0)"/>
     <use xlink:href="#ArialMT-69" transform="translate(839.177734 0)"/>
     <use xlink:href="#ArialMT-74" transform="translate(861.394531 0)"/>
     <use xlink:href="#ArialMT-79" transform="translate(889.177734 0)"/>
    </g>
   </g>
  </g>
  <g id="axes_2">
   <g id="patch_5">
    <path d="M 297.544531 188.291443 
L 507.358281 188.291443 
L 507.358281 59.1675 
L 297.544531 59.1675 
z
" style="fill: #ffffff"/>
   </g>
   <g id="FillBetweenPolyCollection_2">
    <defs>
     <path id="md0a908df64" d="M 307.08152 -297.494056 
L 307.08152 -282.665334 
L 354.766463 -317.645908 
L 402.451406 -331.714182 
L 450.136349 -337.037313 
L 497.821293 -337.227425 
L 497.821293 -348.634133 
L 497.821293 -348.634133 
L 450.136349 -348.824245 
L 402.451406 -354.147376 
L 354.766463 -342.360444 
L 307.08152 -297.494056 
z
"/>
    </defs>
    <g clip-path="url(#p7fe878be98)">
     <use xlink:href="#md0a908df64" x="0" y="428.828" style="fill: #3e7cb1; fill-opacity: 0.1"/>
    </g>
   </g>
   <g id="matplotlib.axis_3">
    <g id="xtick_6">
     <g id="line2d_24">
      <path d="M 307.08152 188.291443 
L 307.08152 59.1675 
" clip-path="url(#p7fe878be98)" style="fill: none; stroke: #e5e5e5; stroke-opacity: 0.85; stroke-width: 0.8; stroke-linecap: square"/>
     </g>
     <g id="line2d_25">
      <g>
       <use xlink:href="#mf419b81e5f" x="307.08152" y="188.291443" style="stroke: #000000; stroke-width: 0.8"/>
      </g>
     </g>
    </g>
    <g id="xtick_7">
     <g id="line2d_26">
      <path d="M 354.766463 188.291443 
L 354.766463 59.1675 
" clip-path="url(#p7fe878be98)" style="fill: none; stroke: #e5e5e5; stroke-opacity: 0.85; stroke-width: 0.8; stroke-linecap: square"/>
     </g>
     <g id="line2d_27">
      <g>
       <use xlink:href="#mf419b81e5f" x="354.766463" y="188.291443" style="stroke: #000000; stroke-width: 0.8"/>
      </g>
     </g>
    </g>
    <g id="xtick_8">
     <g id="line2d_28">
      <path d="M 402.451406 188.291443 
L 402.451406 59.1675 
" clip-path="url(#p7fe878be98)" style="fill: none; stroke: #e5e5e5; stroke-opacity: 0.85; stroke-width: 0.8; stroke-linecap: square"/>
     </g>
     <g id="line2d_29">
      <g>
       <use xlink:href="#mf419b81e5f" x="402.451406" y="188.291443" style="stroke: #000000; stroke-width: 0.8"/>
      </g>
     </g>
    </g>
    <g id="xtick_9">
     <g id="line2d_30">
      <path d="M 450.136349 188.291443 
L 450.136349 59.1675 
" clip-path="url(#p7fe878be98)" style="fill: none; stroke: #e5e5e5; stroke-opacity: 0.85; stroke-width: 0.8; stroke-linecap: square"/>
     </g>
     <g id="line2d_31">
      <g>
       <use xlink:href="#mf419b81e5f" x="450.136349" y="188.291443" style="stroke: #000000; stroke-width: 0.8"/>
      </g>
     </g>
    </g>
    <g id="xtick_10">
     <g id="line2d_32">
      <path d="M 497.821293 188.291443 
L 497.821293 59.1675 
" clip-path="url(#p7fe878be98)" style="fill: none; stroke: #e5e5e5; stroke-opacity: 0.85; stroke-width: 0.8; stroke-linecap: square"/>
     </g>
     <g id="line2d_33">
      <g>
       <use xlink:href="#mf419b81e5f" x="497.821293" y="188.291443" style="stroke: #000000; stroke-width: 0.8"/>
      </g>
     </g>
    </g>
   </g>
   <g id="matplotlib.axis_4">
    <g id="ytick_7">
     <g id="line2d_34">
      <path d="M 297.544531 169.73653 
L 507.358281 169.73653 
" clip-path="url(#p7fe878be98)" style="fill: none; stroke: #e5e5e5; stroke-opacity: 0.85; stroke-width: 0.8; stroke-linecap: square"/>
     </g>
     <g id="line2d_35">
      <g>
       <use xlink:href="#m614e3b88cd" x="297.544531" y="169.73653" style="stroke: #000000; stroke-width: 0.8"/>
      </g>
     </g>
     <g id="text_9">
      <!-- 0.93 -->
      <g transform="translate(274.975781 172.599655) scale(0.08 -0.08)">
       <use xlink:href="#ArialMT-30"/>
       <use xlink:href="#ArialMT-2e" transform="translate(55.615234 0)"/>
       <use xlink:href="#ArialMT-39" transform="translate(83.398438 0)"/>
       <use xlink:href="#ArialMT-33" transform="translate(139.013672 0)"/>
      </g>
     </g>
    </g>
    <g id="ytick_8">
     <g id="line2d_36">
      <path d="M 297.544531 150.725349 
L 507.358281 150.725349 
" clip-path="url(#p7fe878be98)" style="fill: none; stroke: #e5e5e5; stroke-opacity: 0.85; stroke-width: 0.8; stroke-linecap: square"/>
     </g>
     <g id="line2d_37">
      <g>
       <use xlink:href="#m614e3b88cd" x="297.544531" y="150.725349" style="stroke: #000000; stroke-width: 0.8"/>
      </g>
     </g>
     <g id="text_10">
      <!-- 0.94 -->
      <g transform="translate(274.975781 153.588474) scale(0.08 -0.08)">
       <use xlink:href="#ArialMT-30"/>
       <use xlink:href="#ArialMT-2e" transform="translate(55.615234 0)"/>
       <use xlink:href="#ArialMT-39" transform="translate(83.398438 0)"/>
       <use xlink:href="#ArialMT-34" transform="translate(139.013672 0)"/>
      </g>
     </g>
    </g>
    <g id="ytick_9">
     <g id="line2d_38">
      <path d="M 297.544531 131.714168 
L 507.358281 131.714168 
" clip-path="url(#p7fe878be98)" style="fill: none; stroke: #e5e5e5; stroke-opacity: 0.85; stroke-width: 0.8; stroke-linecap: square"/>
     </g>
     <g id="line2d_39">
      <g>
       <use xlink:href="#m614e3b88cd" x="297.544531" y="131.714168" style="stroke: #000000; stroke-width: 0.8"/>
      </g>
     </g>
     <g id="text_11">
      <!-- 0.95 -->
      <g transform="translate(274.975781 134.577293) scale(0.08 -0.08)">
       <use xlink:href="#ArialMT-30"/>
       <use xlink:href="#ArialMT-2e" transform="translate(55.615234 0)"/>
       <use xlink:href="#ArialMT-39" transform="translate(83.398438 0)"/>
       <use xlink:href="#ArialMT-35" transform="translate(139.013672 0)"/>
      </g>
     </g>
    </g>
    <g id="ytick_10">
     <g id="line2d_40">
      <path d="M 297.544531 112.702987 
L 507.358281 112.702987 
" clip-path="url(#p7fe878be98)" style="fill: none; stroke: #e5e5e5; stroke-opacity: 0.85; stroke-width: 0.8; stroke-linecap: square"/>
     </g>
     <g id="line2d_41">
      <g>
       <use xlink:href="#m614e3b88cd" x="297.544531" y="112.702987" style="stroke: #000000; stroke-width: 0.8"/>
      </g>
     </g>
     <g id="text_12">
      <!-- 0.96 -->
      <g transform="translate(274.975781 115.566112) scale(0.08 -0.08)">
       <use xlink:href="#ArialMT-30"/>
       <use xlink:href="#ArialMT-2e" transform="translate(55.615234 0)"/>
       <use xlink:href="#ArialMT-39" transform="translate(83.398438 0)"/>
       <use xlink:href="#ArialMT-36" transform="translate(139.013672 0)"/>
      </g>
     </g>
    </g>
    <g id="ytick_11">
     <g id="line2d_42">
      <path d="M 297.544531 93.691805 
L 507.358281 93.691805 
" clip-path="url(#p7fe878be98)" style="fill: none; stroke: #e5e5e5; stroke-opacity: 0.85; stroke-width: 0.8; stroke-linecap: square"/>
     </g>
     <g id="line2d_43">
      <g>
       <use xlink:href="#m614e3b88cd" x="297.544531" y="93.691805" style="stroke: #000000; stroke-width: 0.8"/>
      </g>
     </g>
     <g id="text_13">
      <!-- 0.97 -->
      <g transform="translate(274.975781 96.55493) scale(0.08 -0.08)">
       <use xlink:href="#ArialMT-30"/>
       <use xlink:href="#ArialMT-2e" transform="translate(55.615234 0)"/>
       <use xlink:href="#ArialMT-39" transform="translate(83.398438 0)"/>
       <use xlink:href="#ArialMT-37" transform="translate(139.013672 0)"/>
      </g>
     </g>
    </g>
    <g id="ytick_12">
     <g id="line2d_44">
      <path d="M 297.544531 74.680624 
L 507.358281 74.680624 
" clip-path="url(#p7fe878be98)" style="fill: none; stroke: #e5e5e5; stroke-opacity: 0.85; stroke-width: 0.8; stroke-linecap: square"/>
     </g>
     <g id="line2d_45">
      <g>
       <use xlink:href="#m614e3b88cd" x="297.544531" y="74.680624" style="stroke: #000000; stroke-width: 0.8"/>
      </g>
     </g>
     <g id="text_14">
      <!-- 0.98 -->
      <g transform="translate(274.975781 77.543749) scale(0.08 -0.08)">
       <use xlink:href="#ArialMT-30"/>
       <use xlink:href="#ArialMT-2e" transform="translate(55.615234 0)"/>
       <use xlink:href="#ArialMT-39" transform="translate(83.398438 0)"/>
       <use xlink:href="#ArialMT-38" transform="translate(139.013672 0)"/>
      </g>
     </g>
    </g>
    <g id="text_15">
     <!-- AUC -->
     <g transform="translate(269.187031 133.2308) rotate(-90) scale(0.09 -0.09)">
      <use xlink:href="#ArialMT-41"/>
      <use xlink:href="#ArialMT-55" transform="translate(66.699219 0)"/>
      <use xlink:href="#ArialMT-43" transform="translate(138.916016 0)"/>
     </g>
    </g>
   </g>
   <g id="line2d_46">
    <path d="M 307.08152 138.748305 
L 354.766463 98.824824 
L 402.451406 85.897221 
L 450.136349 85.897221 
L 497.821293 85.897221 
" clip-path="url(#p7fe878be98)" style="fill: none; stroke-dasharray: 5.365,2.32; stroke-dashoffset: 0; stroke: #4f4f4f; stroke-width: 1.45"/>
   </g>
   <g id="patch_6">
    <path d="M 297.544531 188.291443 
L 297.544531 59.1675 
" style="fill: none; stroke: #000000; stroke-width: 0.8; stroke-linejoin: miter; stroke-linecap: square"/>
   </g>
   <g id="patch_7">
    <path d="M 297.544531 188.291443 
L 507.358281 188.291443 
" style="fill: none; stroke: #000000; stroke-width: 0.8; stroke-linejoin: miter; stroke-linecap: square"/>
   </g>
   <g id="PathCollection_2">
    <defs>
     <path id="C1_0_36549910db" d="M 0 2.645751 
C 0.701661 2.645751 1.374679 2.366978 1.870829 1.870829 
C 2.366978 1.374679 2.645751 0.701661 2.645751 -0 
C 2.645751 -0.701661 2.366978 -1.374679 1.870829 -1.870829 
C 1.374679 -2.366978 0.701661 -2.645751 0 -2.645751 
C -0.701661 -2.645751 -1.374679 -2.366978 -1.870829 -1.870829 
C -2.366978 -1.374679 -2.645751 -0.701661 -2.645751 0 
C -2.645751 0.701661 -2.366978 1.374679 -1.870829 1.870829 
C -1.374679 2.366978 -0.701661 2.645751 0 2.645751 
z
"/>
    </defs>
    <g clip-path="url(#p7fe878be98)">
     <use xlink:href="#C1_0_36549910db" x="307.08152" y="138.748305" style="fill: #3e7cb1; stroke: #ffffff; stroke-width: 0.5"/>
    </g>
    <g clip-path="url(#p7fe878be98)">
     <use xlink:href="#C1_0_36549910db" x="354.766463" y="98.824824" style="fill: #3db27d; stroke: #ffffff; stroke-width: 0.5"/>
    </g>
    <g clip-path="url(#p7fe878be98)">
     <use xlink:href="#C1_0_36549910db" x="402.451406" y="85.897221" style="fill: #d64f4f; stroke: #ffffff; stroke-width: 0.5"/>
    </g>
    <g clip-path="url(#p7fe878be98)">
     <use xlink:href="#C1_0_36549910db" x="450.136349" y="85.897221" style="fill: #7a68b3; stroke: #ffffff; stroke-width: 0.5"/>
    </g>
    <g clip-path="url(#p7fe878be98)">
     <use xlink:href="#C1_0_36549910db" x="497.821293" y="85.897221" style="fill: #38b7c9; stroke: #ffffff; stroke-width: 0.5"/>
    </g>
   </g>
   <g id="text_16">
    <!-- Exp. Metallicity -->
    <g transform="translate(370.77707 53.1675) scale(0.095 -0.095)">
     <defs>
      <path id="ArialMT-45" d="M 506 0 
L 506 4581 
L 3819 4581 
L 3819 4041 
L 1113 4041 
L 1113 2638 
L 3647 2638 
L 3647 2100 
L 1113 2100 
L 1113 541 
L 3925 541 
L 3925 0 
L 506 0 
z
" transform="scale(0.015625)"/>
      <path id="ArialMT-78" d="M 47 0 
L 1259 1725 
L 138 3319 
L 841 3319 
L 1350 2541 
Q 1494 2319 1581 2169 
Q 1719 2375 1834 2534 
L 2394 3319 
L 3066 3319 
L 1919 1756 
L 3153 0 
L 2463 0 
L 1781 1031 
L 1600 1309 
L 728 0 
L 47 0 
z
" transform="scale(0.015625)"/>
      <path id="ArialMT-70" d="M 422 -1272 
L 422 3319 
L 934 3319 
L 934 2888 
Q 1116 3141 1344 3267 
Q 1572 3394 1897 3394 
Q 2322 3394 2647 3175 
Q 2972 2956 3137 2557 
Q 3303 2159 3303 1684 
Q 3303 1175 3120 767 
Q 2938 359 2589 142 
Q 2241 -75 1856 -75 
Q 1575 -75 1351 44 
Q 1128 163 984 344 
L 984 -1272 
L 422 -1272 
z
M 931 1641 
Q 931 1000 1190 694 
Q 1450 388 1819 388 
Q 2194 388 2461 705 
Q 2728 1022 2728 1688 
Q 2728 2322 2467 2637 
Q 2206 2953 1844 2953 
Q 1484 2953 1207 2617 
Q 931 2281 931 1641 
z
" transform="scale(0.015625)"/>
      <path id="ArialMT-4d" d="M 475 0 
L 475 4581 
L 1388 4581 
L 2472 1338 
Q 2622 884 2691 659 
Q 2769 909 2934 1394 
L 4031 4581 
L 4847 4581 
L 4847 0 
L 4263 0 
L 4263 3834 
L 2931 0 
L 2384 0 
L 1059 3900 
L 1059 0 
L 475 0 
z
" transform="scale(0.015625)"/>
      <path id="ArialMT-65" d="M 2694 1069 
L 3275 997 
Q 3138 488 2766 206 
Q 2394 -75 1816 -75 
Q 1088 -75 661 373 
Q 234 822 234 1631 
Q 234 2469 665 2931 
Q 1097 3394 1784 3394 
Q 2450 3394 2872 2941 
Q 3294 2488 3294 1666 
Q 3294 1616 3291 1516 
L 816 1516 
Q 847 969 1125 678 
Q 1403 388 1819 388 
Q 2128 388 2347 550 
Q 2566 713 2694 1069 
z
M 847 1978 
L 2700 1978 
Q 2663 2397 2488 2606 
Q 2219 2931 1791 2931 
Q 1403 2931 1139 2672 
Q 875 2413 847 1978 
z
" transform="scale(0.015625)"/>
      <path id="ArialMT-63" d="M 2588 1216 
L 3141 1144 
Q 3050 572 2676 248 
Q 2303 -75 1759 -75 
Q 1078 -75 664 370 
Q 250 816 250 1647 
Q 250 2184 428 2587 
Q 606 2991 970 3192 
Q 1334 3394 1763 3394 
Q 2303 3394 2647 3120 
Q 2991 2847 3088 2344 
L 2541 2259 
Q 2463 2594 2264 2762 
Q 2066 2931 1784 2931 
Q 1359 2931 1093 2626 
Q 828 2322 828 1663 
Q 828 994 1084 691 
Q 1341 388 1753 388 
Q 2084 388 2306 591 
Q 2528 794 2588 1216 
z
" transform="scale(0.015625)"/>
     </defs>
     <use xlink:href="#ArialMT-45"/>
     <use xlink:href="#ArialMT-78" transform="translate(66.699219 0)"/>
     <use xlink:href="#ArialMT-70" transform="translate(116.699219 0)"/>
     <use xlink:href="#ArialMT-2e" transform="translate(172.314453 0)"/>
     <use xlink:href="#ArialMT-20" transform="translate(200.097656 0)"/>
     <use xlink:href="#ArialMT-4d" transform="translate(227.880859 0)"/>
     <use xlink:href="#ArialMT-65" transform="translate(311.181641 0)"/>
     <use xlink:href="#ArialMT-74" transform="translate(366.796875 0)"/>
     <use xlink:href="#ArialMT-61" transform="translate(394.580078 0)"/>
     <use xlink:href="#ArialMT-6c" transform="translate(450.195312 0)"/>
     <use xlink:href="#ArialMT-6c" transform="translate(472.412109 0)"/>
     <use xlink:href="#ArialMT-69" transform="translate(494.628906 0)"/>
     <use xlink:href="#ArialMT-63" transform="translate(516.845703 0)"/>
     <use xlink:href="#ArialMT-69" transform="translate(566.845703 0)"/>
     <use xlink:href="#ArialMT-74" transform="translate(589.0625 0)"/>
     <use xlink:href="#ArialMT-79" transform="translate(616.845703 0)"/>
    </g>
   </g>
  </g>
  <g id="axes_3">
   <g id="patch_8">
    <path d="M 41.999531 346.415387 
L 251.813281 346.415387 
L 251.813281 217.291443 
L 41.999531 217.291443 
z
" style="fill: #ffffff"/>
   </g>
   <g id="FillBetweenPolyCollection_3">
    <defs>
     <path id="m3e558888dc" d="M 51.53652 -165.605543 
L 51.53652 -157.620847 
L 99.221463 -174.540798 
L 146.906406 -180.814488 
L 194.591349 -185.187059 
L 242.276293 -188.228848 
L 242.276293 -188.228848 
L 242.276293 -188.228848 
L 194.591349 -191.270637 
L 146.906406 -192.981644 
L 99.221463 -187.848625 
L 51.53652 -165.605543 
z
"/>
    </defs>
    <g clip-path="url(#p90d295367a)">
     <use xlink:href="#m3e558888dc" x="0" y="428.828" style="fill: #3e7cb1; fill-opacity: 0.1"/>
    </g>
   </g>
   <g id="matplotlib.axis_5">
    <g id="xtick_11">
     <g id="line2d_47">
      <path d="M 51.53652 346.415387 
L 51.53652 217.291443 
" clip-path="url(#p90d295367a)" style="fill: none; stroke: #e5e5e5; stroke-opacity: 0.85; stroke-width: 0.8; stroke-linecap: square"/>
     </g>
     <g id="line2d_48">
      <g>
       <use xlink:href="#mf419b81e5f" x="51.53652" y="346.415387" style="stroke: #000000; stroke-width: 0.8"/>
      </g>
     </g>
     <g id="text_17">
      <!-- No-sharing -->
      <g transform="translate(18.520413 380.547951) rotate(-35) scale(0.08 -0.08)">
       <defs>
        <path id="ArialMT-4e" d="M 488 0 
L 488 4581 
L 1109 4581 
L 3516 984 
L 3516 4581 
L 4097 4581 
L 4097 0 
L 3475 0 
L 1069 3600 
L 1069 0 
L 488 0 
z
" transform="scale(0.015625)"/>
        <path id="ArialMT-2d" d="M 203 1375 
L 203 1941 
L 1931 1941 
L 1931 1375 
L 203 1375 
z
" transform="scale(0.015625)"/>
        <path id="ArialMT-68" d="M 422 0 
L 422 4581 
L 984 4581 
L 984 2938 
Q 1378 3394 1978 3394 
Q 2347 3394 2619 3248 
Q 2891 3103 3008 2847 
Q 3125 2591 3125 2103 
L 3125 0 
L 2563 0 
L 2563 2103 
Q 2563 2525 2380 2717 
Q 2197 2909 1863 2909 
Q 1613 2909 1392 2779 
Q 1172 2650 1078 2428 
Q 984 2206 984 1816 
L 984 0 
L 422 0 
z
" transform="scale(0.015625)"/>
       </defs>
       <use xlink:href="#ArialMT-4e"/>
       <use xlink:href="#ArialMT-6f" transform="translate(72.216797 0)"/>
       <use xlink:href="#ArialMT-2d" transform="translate(127.832031 0)"/>
       <use xlink:href="#ArialMT-73" transform="translate(161.132812 0)"/>
       <use xlink:href="#ArialMT-68" transform="translate(211.132812 0)"/>
       <use xlink:href="#ArialMT-61" transform="translate(266.748047 0)"/>
       <use xlink:href="#ArialMT-72" transform="translate(322.363281 0)"/>
       <use xlink:href="#ArialMT-69" transform="translate(355.664062 0)"/>
       <use xlink:href="#ArialMT-6e" transform="translate(377.880859 0)"/>
       <use xlink:href="#ArialMT-67" transform="translate(433.496094 0)"/>
      </g>
     </g>
    </g>
    <g id="xtick_12">
     <g id="line2d_49">
      <path d="M 99.221463 346.415387 
L 99.221463 217.291443 
" clip-path="url(#p90d295367a)" style="fill: none; stroke: #e5e5e5; stroke-opacity: 0.85; stroke-width: 0.8; stroke-linecap: square"/>
     </g>
     <g id="line2d_50">
      <g>
       <use xlink:href="#mf419b81e5f" x="99.221463" y="346.415387" style="stroke: #000000; stroke-width: 0.8"/>
      </g>
     </g>
     <g id="text_18">
      <!-- Fully joint -->
      <g transform="translate(70.578604 377.48577) rotate(-35) scale(0.08 -0.08)">
       <defs>
        <path id="ArialMT-75" d="M 2597 0 
L 2597 488 
Q 2209 -75 1544 -75 
Q 1250 -75 995 37 
Q 741 150 617 320 
Q 494 491 444 738 
Q 409 903 409 1263 
L 409 3319 
L 972 3319 
L 972 1478 
Q 972 1038 1006 884 
Q 1059 663 1231 536 
Q 1403 409 1656 409 
Q 1909 409 2131 539 
Q 2353 669 2445 892 
Q 2538 1116 2538 1541 
L 2538 3319 
L 3100 3319 
L 3100 0 
L 2597 0 
z
" transform="scale(0.015625)"/>
        <path id="ArialMT-6a" d="M 419 3928 
L 419 4581 
L 981 4581 
L 981 3928 
L 419 3928 
z
M -294 -1288 
L -188 -809 
Q -19 -853 78 -853 
Q 250 -853 334 -739 
Q 419 -625 419 -169 
L 419 3319 
L 981 3319 
L 981 -181 
Q 981 -794 822 -1034 
Q 619 -1347 147 -1347 
Q -81 -1347 -294 -1288 
z
" transform="scale(0.015625)"/>
       </defs>
       <use xlink:href="#ArialMT-46"/>
       <use xlink:href="#ArialMT-75" transform="translate(61.083984 0)"/>
       <use xlink:href="#ArialMT-6c" transform="translate(116.699219 0)"/>
       <use xlink:href="#ArialMT-6c" transform="translate(138.916016 0)"/>
       <use xlink:href="#ArialMT-79" transform="translate(161.132812 0)"/>
       <use xlink:href="#ArialMT-20" transform="translate(211.132812 0)"/>
       <use xlink:href="#ArialMT-6a" transform="translate(238.916016 0)"/>
       <use xlink:href="#ArialMT-6f" transform="translate(261.132812 0)"/>
       <use xlink:href="#ArialMT-69" transform="translate(316.748047 0)"/>
       <use xlink:href="#ArialMT-6e" transform="translate(338.964844 0)"/>
       <use xlink:href="#ArialMT-74" transform="translate(394.580078 0)"/>
      </g>
     </g>
    </g>
    <g id="xtick_13">
     <g id="line2d_51">
      <path d="M 146.906406 346.415387 
L 146.906406 217.291443 
" clip-path="url(#p90d295367a)" style="fill: none; stroke: #e5e5e5; stroke-opacity: 0.85; stroke-width: 0.8; stroke-linecap: square"/>
     </g>
     <g id="line2d_52">
      <g>
       <use xlink:href="#mf419b81e5f" x="146.906406" y="346.415387" style="stroke: #000000; stroke-width: 0.8"/>
      </g>
     </g>
     <g id="text_19">
      <!-- Pure MoE -->
      <g transform="translate(116.858205 378.507453) rotate(-35) scale(0.08 -0.08)">
       <defs>
        <path id="ArialMT-50" d="M 494 0 
L 494 4581 
L 2222 4581 
Q 2678 4581 2919 4538 
Q 3256 4481 3484 4323 
Q 3713 4166 3852 3881 
Q 3991 3597 3991 3256 
Q 3991 2672 3619 2267 
Q 3247 1863 2275 1863 
L 1100 1863 
L 1100 0 
L 494 0 
z
M 1100 2403 
L 2284 2403 
Q 2872 2403 3119 2622 
Q 3366 2841 3366 3238 
Q 3366 3525 3220 3729 
Q 3075 3934 2838 4000 
Q 2684 4041 2272 4041 
L 1100 4041 
L 1100 2403 
z
" transform="scale(0.015625)"/>
       </defs>
       <use xlink:href="#ArialMT-50"/>
       <use xlink:href="#ArialMT-75" transform="translate(66.699219 0)"/>
       <use xlink:href="#ArialMT-72" transform="translate(122.314453 0)"/>
       <use xlink:href="#ArialMT-65" transform="translate(155.615234 0)"/>
       <use xlink:href="#ArialMT-20" transform="translate(211.230469 0)"/>
       <use xlink:href="#ArialMT-4d" transform="translate(239.013672 0)"/>
       <use xlink:href="#ArialMT-6f" transform="translate(322.314453 0)"/>
       <use xlink:href="#ArialMT-45" transform="translate(377.929688 0)"/>
      </g>
     </g>
    </g>
    <g id="xtick_14">
     <g id="line2d_53">
      <path d="M 194.591349 346.415387 
L 194.591349 217.291443 
" clip-path="url(#p90d295367a)" style="fill: none; stroke: #e5e5e5; stroke-opacity: 0.85; stroke-width: 0.8; stroke-linecap: square"/>
     </g>
     <g id="line2d_54">
      <g>
       <use xlink:href="#mf419b81e5f" x="194.591349" y="346.415387" style="stroke: #000000; stroke-width: 0.8"/>
      </g>
     </g>
     <g id="text_20">
      <!-- Per-task gate -->
      <g transform="translate(154.654432 385.393955) rotate(-35) scale(0.08 -0.08)">
       <defs>
        <path id="ArialMT-6b" d="M 425 0 
L 425 4581 
L 988 4581 
L 988 1969 
L 2319 3319 
L 3047 3319 
L 1778 2088 
L 3175 0 
L 2481 0 
L 1384 1697 
L 988 1316 
L 988 0 
L 425 0 
z
" transform="scale(0.015625)"/>
       </defs>
       <use xlink:href="#ArialMT-50"/>
       <use xlink:href="#ArialMT-65" transform="translate(66.699219 0)"/>
       <use xlink:href="#ArialMT-72" transform="translate(122.314453 0)"/>
       <use xlink:href="#ArialMT-2d" transform="translate(155.615234 0)"/>
       <use xlink:href="#ArialMT-74" transform="translate(188.916016 0)"/>
       <use xlink:href="#ArialMT-61" transform="translate(216.699219 0)"/>
       <use xlink:href="#ArialMT-73" transform="translate(272.314453 0)"/>
       <use xlink:href="#ArialMT-6b" transform="translate(322.314453 0)"/>
       <use xlink:href="#ArialMT-20" transform="translate(372.314453 0)"/>
       <use xlink:href="#ArialMT-67" transform="translate(400.097656 0)"/>
       <use xlink:href="#ArialMT-61" transform="translate(455.712891 0)"/>
       <use xlink:href="#ArialMT-74" transform="translate(511.328125 0)"/>
       <use xlink:href="#ArialMT-65" transform="translate(539.111328 0)"/>
      </g>
     </g>
    </g>
    <g id="xtick_15">
     <g id="line2d_55">
      <path d="M 242.276293 346.415387 
L 242.276293 217.291443 
" clip-path="url(#p90d295367a)" style="fill: none; stroke: #e5e5e5; stroke-opacity: 0.85; stroke-width: 0.8; stroke-linecap: square"/>
     </g>
     <g id="line2d_56">
      <g>
       <use xlink:href="#mf419b81e5f" x="242.276293" y="346.415387" style="stroke: #000000; stroke-width: 0.8"/>
      </g>
     </g>
     <g id="text_21">
      <!-- AG-MoE -->
      <g transform="translate(216.239889 375.698362) rotate(-35) scale(0.08 -0.08)">
       <use xlink:href="#ArialMT-41"/>
       <use xlink:href="#ArialMT-47" transform="translate(66.699219 0)"/>
       <use xlink:href="#ArialMT-2d" transform="translate(144.482422 0)"/>
       <use xlink:href="#ArialMT-4d" transform="translate(177.783203 0)"/>
       <use xlink:href="#ArialMT-6f" transform="translate(261.083984 0)"/>
       <use xlink:href="#ArialMT-45" transform="translate(316.699219 0)"/>
      </g>
     </g>
    </g>
   </g>
   <g id="matplotlib.axis_6">
    <g id="ytick_13">
     <g id="line2d_57">
      <path d="M 41.999531 327.860474 
L 251.813281 327.860474 
" clip-path="url(#p90d295367a)" style="fill: none; stroke: #e5e5e5; stroke-opacity: 0.85; stroke-width: 0.8; stroke-linecap: square"/>
     </g>
     <g id="line2d_58">
      <g>
       <use xlink:href="#m614e3b88cd" x="41.999531" y="327.860474" style="stroke: #000000; stroke-width: 0.8"/>
      </g>
     </g>
     <g id="text_22">
      <!-- 0.93 -->
      <g transform="translate(19.430781 330.723599) scale(0.08 -0.08)">
       <use xlink:href="#ArialMT-30"/>
       <use xlink:href="#ArialMT-2e" transform="translate(55.615234 0)"/>
       <use xlink:href="#ArialMT-39" transform="translate(83.398438 0)"/>
       <use xlink:href="#ArialMT-33" transform="translate(139.013672 0)"/>
      </g>
     </g>
    </g>
    <g id="ytick_14">
     <g id="line2d_59">
      <path d="M 41.999531 308.849292 
L 251.813281 308.849292 
" clip-path="url(#p90d295367a)" style="fill: none; stroke: #e5e5e5; stroke-opacity: 0.85; stroke-width: 0.8; stroke-linecap: square"/>
     </g>
     <g id="line2d_60">
      <g>
       <use xlink:href="#m614e3b88cd" x="41.999531" y="308.849292" style="stroke: #000000; stroke-width: 0.8"/>
      </g>
     </g>
     <g id="text_23">
      <!-- 0.94 -->
      <g transform="translate(19.430781 311.712417) scale(0.08 -0.08)">
       <use xlink:href="#ArialMT-30"/>
       <use xlink:href="#ArialMT-2e" transform="translate(55.615234 0)"/>
       <use xlink:href="#ArialMT-39" transform="translate(83.398438 0)"/>
       <use xlink:href="#ArialMT-34" transform="translate(139.013672 0)"/>
      </g>
     </g>
    </g>
    <g id="ytick_15">
     <g id="line2d_61">
      <path d="M 41.999531 289.838111 
L 251.813281 289.838111 
" clip-path="url(#p90d295367a)" style="fill: none; stroke: #e5e5e5; stroke-opacity: 0.85; stroke-width: 0.8; stroke-linecap: square"/>
     </g>
     <g id="line2d_62">
      <g>
       <use xlink:href="#m614e3b88cd" x="41.999531" y="289.838111" style="stroke: #000000; stroke-width: 0.8"/>
      </g>
     </g>
     <g id="text_24">
      <!-- 0.95 -->
      <g transform="translate(19.430781 292.701236) scale(0.08 -0.08)">
       <use xlink:href="#ArialMT-30"/>
       <use xlink:href="#ArialMT-2e" transform="translate(55.615234 0)"/>
       <use xlink:href="#ArialMT-39" transform="translate(83.398438 0)"/>
       <use xlink:href="#ArialMT-35" transform="translate(139.013672 0)"/>
      </g>
     </g>
    </g>
    <g id="ytick_16">
     <g id="line2d_63">
      <path d="M 41.999531 270.82693 
L 251.813281 270.82693 
" clip-path="url(#p90d295367a)" style="fill: none; stroke: #e5e5e5; stroke-opacity: 0.85; stroke-width: 0.8; stroke-linecap: square"/>
     </g>
     <g id="line2d_64">
      <g>
       <use xlink:href="#m614e3b88cd" x="41.999531" y="270.82693" style="stroke: #000000; stroke-width: 0.8"/>
      </g>
     </g>
     <g id="text_25">
      <!-- 0.96 -->
      <g transform="translate(19.430781 273.690055) scale(0.08 -0.08)">
       <use xlink:href="#ArialMT-30"/>
       <use xlink:href="#ArialMT-2e" transform="translate(55.615234 0)"/>
       <use xlink:href="#ArialMT-39" transform="translate(83.398438 0)"/>
       <use xlink:href="#ArialMT-36" transform="translate(139.013672 0)"/>
      </g>
     </g>
    </g>
    <g id="ytick_17">
     <g id="line2d_65">
      <path d="M 41.999531 251.815749 
L 251.813281 251.815749 
" clip-path="url(#p90d295367a)" style="fill: none; stroke: #e5e5e5; stroke-opacity: 0.85; stroke-width: 0.8; stroke-linecap: square"/>
     </g>
     <g id="line2d_66">
      <g>
       <use xlink:href="#m614e3b88cd" x="41.999531" y="251.815749" style="stroke: #000000; stroke-width: 0.8"/>
      </g>
     </g>
     <g id="text_26">
      <!-- 0.97 -->
      <g transform="translate(19.430781 254.678874) scale(0.08 -0.08)">
       <use xlink:href="#ArialMT-30"/>
       <use xlink:href="#ArialMT-2e" transform="translate(55.615234 0)"/>
       <use xlink:href="#ArialMT-39" transform="translate(83.398438 0)"/>
       <use xlink:href="#ArialMT-37" transform="translate(139.013672 0)"/>
      </g>
     </g>
    </g>
    <g id="ytick_18">
     <g id="line2d_67">
      <path d="M 41.999531 232.804567 
L 251.813281 232.804567 
" clip-path="url(#p90d295367a)" style="fill: none; stroke: #e5e5e5; stroke-opacity: 0.85; stroke-width: 0.8; stroke-linecap: square"/>
     </g>
     <g id="line2d_68">
      <g>
       <use xlink:href="#m614e3b88cd" x="41.999531" y="232.804567" style="stroke: #000000; stroke-width: 0.8"/>
      </g>
     </g>
     <g id="text_27">
      <!-- 0.98 -->
      <g transform="translate(19.430781 235.667692) scale(0.08 -0.08)">
       <use xlink:href="#ArialMT-30"/>
       <use xlink:href="#ArialMT-2e" transform="translate(55.615234 0)"/>
       <use xlink:href="#ArialMT-39" transform="translate(83.398438 0)"/>
       <use xlink:href="#ArialMT-38" transform="translate(139.013672 0)"/>
      </g>
     </g>
    </g>
    <g id="text_28">
     <!-- AUC -->
     <g transform="translate(13.642031 291.354743) rotate(-90) scale(0.09 -0.09)">
      <use xlink:href="#ArialMT-41"/>
      <use xlink:href="#ArialMT-55" transform="translate(66.699219 0)"/>
      <use xlink:href="#ArialMT-43" transform="translate(138.916016 0)"/>
     </g>
    </g>
   </g>
   <g id="line2d_69">
    <path d="M 51.53652 267.214805 
L 99.221463 247.633289 
L 146.906406 241.929934 
L 194.591349 240.599152 
L 242.276293 240.599152 
" clip-path="url(#p90d295367a)" style="fill: none; stroke-dasharray: 5.365,2.32; stroke-dashoffset: 0; stroke: #4f4f4f; stroke-width: 1.45"/>
   </g>
   <g id="patch_9">
    <path d="M 41.999531 346.415387 
L 41.999531 217.291443 
" style="fill: none; stroke: #000000; stroke-width: 0.8; stroke-linejoin: miter; stroke-linecap: square"/>
   </g>
   <g id="patch_10">
    <path d="M 41.999531 346.415387 
L 251.813281 346.415387 
" style="fill: none; stroke: #000000; stroke-width: 0.8; stroke-linejoin: miter; stroke-linecap: square"/>
   </g>
   <g id="PathCollection_3">
    <defs>
     <path id="C2_0_f746a96da3" d="M 0 2.645751 
C 0.701661 2.645751 1.374679 2.366978 1.870829 1.870829 
C 2.366978 1.374679 2.645751 0.701661 2.645751 -0 
C 2.645751 -0.701661 2.366978 -1.374679 1.870829 -1.870829 
C 1.374679 -2.366978 0.701661 -2.645751 0 -2.645751 
C -0.701661 -2.645751 -1.374679 -2.366978 -1.870829 -1.870829 
C -2.366978 -1.374679 -2.645751 -0.701661 -2.645751 0 
C -2.645751 0.701661 -2.366978 1.374679 -1.870829 1.870829 
C -1.374679 2.366978 -0.701661 2.645751 0 2.645751 
z
"/>
    </defs>
    <g clip-path="url(#p90d295367a)">
     <use xlink:href="#C2_0_f746a96da3" x="51.53652" y="267.214805" style="fill: #3e7cb1; stroke: #ffffff; stroke-width: 0.5"/>
    </g>
    <g clip-path="url(#p90d295367a)">
     <use xlink:href="#C2_0_f746a96da3" x="99.221463" y="247.633289" style="fill: #3db27d; stroke: #ffffff; stroke-width: 0.5"/>
    </g>
    <g clip-path="url(#p90d295367a)">
     <use xlink:href="#C2_0_f746a96da3" x="146.906406" y="241.929934" style="fill: #d64f4f; stroke: #ffffff; stroke-width: 0.5"/>
    </g>
    <g clip-path="url(#p90d295367a)">
     <use xlink:href="#C2_0_f746a96da3" x="194.591349" y="240.599152" style="fill: #7a68b3; stroke: #ffffff; stroke-width: 0.5"/>
    </g>
    <g clip-path="url(#p90d295367a)">
     <use xlink:href="#C2_0_f746a96da3" x="242.276293" y="240.599152" style="fill: #38b7c9; stroke: #ffffff; stroke-width: 0.5"/>
    </g>
   </g>
   <g id="text_29">
    <!-- MP Metallicity -->
    <g transform="translate(117.694648 211.291443) scale(0.095 -0.095)">
     <use xlink:href="#ArialMT-4d"/>
     <use xlink:href="#ArialMT-50" transform="translate(83.300781 0)"/>
     <use xlink:href="#ArialMT-20" transform="translate(148.25 0)"/>
     <use xlink:href="#ArialMT-4d" transform="translate(176.033203 0)"/>
     <use xlink:href="#ArialMT-65" transform="translate(259.333984 0)"/>
     <use xlink:href="#ArialMT-74" transform="translate(314.949219 0)"/>
     <use xlink:href="#ArialMT-61" transform="translate(342.732422 0)"/>
     <use xlink:href="#ArialMT-6c" transform="translate(398.347656 0)"/>
     <use xlink:href="#ArialMT-6c" transform="translate(420.564453 0)"/>
     <use xlink:href="#ArialMT-69" transform="translate(442.78125 0)"/>
     <use xlink:href="#ArialMT-63" transform="translate(464.998047 0)"/>
     <use xlink:href="#ArialMT-69" transform="translate(514.998047 0)"/>
     <use xlink:href="#ArialMT-74" transform="translate(537.214844 0)"/>
     <use xlink:href="#ArialMT-79" transform="translate(564.998047 0)"/>
    </g>
   </g>
  </g>
  <g id="axes_4"/>
  <g id="text_30">
   <!-- AUC across classification tasks -->
   <g transform="translate(180.928672 15.073594) scale(0.11 -0.11)">
    <defs>
     <path id="ArialMT-66" d="M 556 0 
L 556 2881 
L 59 2881 
L 59 3319 
L 556 3319 
L 556 3672 
Q 556 4006 616 4169 
Q 697 4388 901 4523 
Q 1106 4659 1475 4659 
Q 1713 4659 2000 4603 
L 1916 4113 
Q 1741 4144 1584 4144 
Q 1328 4144 1222 4034 
Q 1116 3925 1116 3625 
L 1116 3319 
L 1763 3319 
L 1763 2881 
L 1116 2881 
L 1116 0 
L 556 0 
z
" transform="scale(0.015625)"/>
    </defs>
    <use xlink:href="#ArialMT-41"/>
    <use xlink:href="#ArialMT-55" transform="translate(66.699219 0)"/>
    <use xlink:href="#ArialMT-43" transform="translate(138.916016 0)"/>
    <use xlink:href="#ArialMT-20" transform="translate(211.132812 0)"/>
    <use xlink:href="#ArialMT-61" transform="translate(238.916016 0)"/>
    <use xlink:href="#ArialMT-63" transform="translate(294.53125 0)"/>
    <use xlink:href="#ArialMT-72" transform="translate(344.53125 0)"/>
    <use xlink:href="#ArialMT-6f" transform="translate(377.832031 0)"/>
    <use xlink:href="#ArialMT-73" transform="translate(433.447266 0)"/>
    <use xlink:href="#ArialMT-73" transform="translate(483.447266 0)"/>
    <use xlink:href="#ArialMT-20" transform="translate(533.447266 0)"/>
    <use xlink:href="#ArialMT-63" transform="translate(561.230469 0)"/>
    <use xlink:href="#ArialMT-6c" transform="translate(611.230469 0)"/>
    <use xlink:href="#ArialMT-61" transform="translate(633.447266 0)"/>
    <use xlink:href="#ArialMT-73" transform="translate(689.0625 0)"/>
    <use xlink:href="#ArialMT-73" transform="translate(739.0625 0)"/>
    <use xlink:href="#ArialMT-69" transform="translate(789.0625 0)"/>
    <use xlink:href="#ArialMT-66" transform="translate(811.279297 0)"/>
    <use xlink:href="#ArialMT-69" transform="translate(839.0625 0)"/>
    <use xlink:href="#ArialMT-63" transform="translate(861.279297 0)"/>
    <use xlink:href="#ArialMT-61" transform="translate(911.279297 0)"/>
    <use xlink:href="#ArialMT-74" transform="translate(966.894531 0)"/>
    <use xlink:href="#ArialMT-69" transform="translate(994.677734 0)"/>
    <use xlink:href="#ArialMT-6f" transform="translate(1016.894531 0)"/>
    <use xlink:href="#ArialMT-6e" transform="translate(1072.509766 0)"/>
    <use xlink:href="#ArialMT-20" transform="translate(1128.125 0)"/>
    <use xlink:href="#ArialMT-74" transform="translate(1155.908203 0)"/>
    <use xlink:href="#ArialMT-61" transform="translate(1183.691406 0)"/>
    <use xlink:href="#ArialMT-73" transform="translate(1239.306641 0)"/>
    <use xlink:href="#ArialMT-6b" transform="translate(1289.306641 0)"/>
    <use xlink:href="#ArialMT-73" transform="translate(1339.306641 0)"/>
   </g>
  </g>
  <g id="legend_1">
   <g id="patch_11">
    <path d="M 72.773906 421.628 
L 441.902656 421.628 
L 441.902656 407.818 
L 72.773906 407.818 
z
" style="fill: #ffffff; opacity: 0.92; stroke: #d8d8d8; stroke-linejoin: miter"/>
   </g>
   <g id="line2d_70">
    <path d="M 75.973906 413.94425 
L 83.973906 413.94425 
L 91.973906 413.94425 
" style="fill: none; stroke: #000000; stroke-opacity: 0; stroke-width: 1.5; stroke-linecap: square"/>
    <defs>
     <path id="m29f15f22e2" d="M 0 3 
C 0.795609 3 1.55874 2.683901 2.12132 2.12132 
C 2.683901 1.55874 3 0.795609 3 0 
C 3 -0.795609 2.683901 -1.55874 2.12132 -2.12132 
C 1.55874 -2.683901 0.795609 -3 0 -3 
C -0.795609 -3 -1.55874 -2.683901 -2.12132 -2.12132 
C -2.683901 -1.55874 -3 -0.795609 -3 0 
C -3 0.795609 -2.683901 1.55874 -2.12132 2.12132 
C -1.55874 2.683901 -0.795609 3 0 3 
z
" style="stroke: #ffffff"/>
    </defs>
    <g>
     <use xlink:href="#m29f15f22e2" x="83.973906" y="413.94425" style="fill: #3e7cb1; stroke: #ffffff"/>
    </g>
   </g>
   <g id="text_31">
    <!-- No-sharing -->
    <g transform="translate(98.373906 416.74425) scale(0.08 -0.08)">
     <use xlink:href="#ArialMT-4e"/>
     <use xlink:href="#ArialMT-6f" transform="translate(72.216797 0)"/>
     <use xlink:href="#ArialMT-2d" transform="translate(127.832031 0)"/>
     <use xlink:href="#ArialMT-73" transform="translate(161.132812 0)"/>
     <use xlink:href="#ArialMT-68" transform="translate(211.132812 0)"/>
     <use xlink:href="#ArialMT-61" transform="translate(266.748047 0)"/>
     <use xlink:href="#ArialMT-72" transform="translate(322.363281 0)"/>
     <use xlink:href="#ArialMT-69" transform="translate(355.664062 0)"/>
     <use xlink:href="#ArialMT-6e" transform="translate(377.880859 0)"/>
     <use xlink:href="#ArialMT-67" transform="translate(433.496094 0)"/>
    </g>
   </g>
   <g id="line2d_71">
    <path d="M 153.500156 413.94425 
L 161.500156 413.94425 
L 169.500156 413.94425 
" style="fill: none; stroke: #000000; stroke-opacity: 0; stroke-width: 1.5; stroke-linecap: square"/>
    <defs>
     <path id="m35ea989efb" d="M 0 3 
C 0.795609 3 1.55874 2.683901 2.12132 2.12132 
C 2.683901 1.55874 3 0.795609 3 0 
C 3 -0.795609 2.683901 -1.55874 2.12132 -2.12132 
C 1.55874 -2.683901 0.795609 -3 0 -3 
C -0.795609 -3 -1.55874 -2.683901 -2.12132 -2.12132 
C -2.683901 -1.55874 -3 -0.795609 -3 0 
C -3 0.795609 -2.683901 1.55874 -2.12132 2.12132 
C -1.55874 2.683901 -0.795609 3 0 3 
z
" style="stroke: #ffffff"/>
    </defs>
    <g>
     <use xlink:href="#m35ea989efb" x="161.500156" y="413.94425" style="fill: #3db27d; stroke: #ffffff"/>
    </g>
   </g>
   <g id="text_32">
    <!-- Fully joint -->
    <g transform="translate(175.900156 416.74425) scale(0.08 -0.08)">
     <use xlink:href="#ArialMT-46"/>
     <use xlink:href="#ArialMT-75" transform="translate(61.083984 0)"/>
     <use xlink:href="#ArialMT-6c" transform="translate(116.699219 0)"/>
     <use xlink:href="#ArialMT-6c" transform="translate(138.916016 0)"/>
     <use xlink:href="#ArialMT-79" transform="translate(161.132812 0)"/>
     <use xlink:href="#ArialMT-20" transform="translate(211.132812 0)"/>
     <use xlink:href="#ArialMT-6a" transform="translate(238.916016 0)"/>
     <use xlink:href="#ArialMT-6f" transform="translate(261.132812 0)"/>
     <use xlink:href="#ArialMT-69" transform="translate(316.748047 0)"/>
     <use xlink:href="#ArialMT-6e" transform="translate(338.964844 0)"/>
     <use xlink:href="#ArialMT-74" transform="translate(394.580078 0)"/>
    </g>
   </g>
   <g id="line2d_72">
    <path d="M 225.687656 413.94425 
L 233.687656 413.94425 
L 241.687656 413.94425 
" style="fill: none; stroke: #000000; stroke-opacity: 0; stroke-width: 1.5; stroke-linecap: square"/>
    <defs>
     <path id="m20588addeb" d="M 0 3 
C 0.795609 3 1.55874 2.683901 2.12132 2.12132 
C 2.683901 1.55874 3 0.795609 3 0 
C 3 -0.795609 2.683901 -1.55874 2.12132 -2.12132 
C 1.55874 -2.683901 0.795609 -3 0 -3 
C -0.795609 -3 -1.55874 -2.683901 -2.12132 -2.12132 
C -2.683901 -1.55874 -3 -0.795609 -3 0 
C -3 0.795609 -2.683901 1.55874 -2.12132 2.12132 
C -1.55874 2.683901 -0.795609 3 0 3 
z
" style="stroke: #ffffff"/>
    </defs>
    <g>
     <use xlink:href="#m20588addeb" x="233.687656" y="413.94425" style="fill: #d64f4f; stroke: #ffffff"/>
    </g>
   </g>
   <g id="text_33">
    <!-- Pure MoE -->
    <g transform="translate(248.087656 416.74425) scale(0.08 -0.08)">
     <use xlink:href="#ArialMT-50"/>
     <use xlink:href="#ArialMT-75" transform="translate(66.699219 0)"/>
     <use xlink:href="#ArialMT-72" transform="translate(122.314453 0)"/>
     <use xlink:href="#ArialMT-65" transform="translate(155.615234 0)"/>
     <use xlink:href="#ArialMT-20" transform="translate(211.230469 0)"/>
     <use xlink:href="#ArialMT-4d" transform="translate(239.013672 0)"/>
     <use xlink:href="#ArialMT-6f" transform="translate(322.314453 0)"/>
     <use xlink:href="#ArialMT-45" transform="translate(377.929688 0)"/>
    </g>
   </g>
   <g id="line2d_73">
    <path d="M 299.656406 413.94425 
L 307.656406 413.94425 
L 315.656406 413.94425 
" style="fill: none; stroke: #000000; stroke-opacity: 0; stroke-width: 1.5; stroke-linecap: square"/>
    <defs>
     <path id="mf61a9a595d" d="M 0 3 
C 0.795609 3 1.55874 2.683901 2.12132 2.12132 
C 2.683901 1.55874 3 0.795609 3 0 
C 3 -0.795609 2.683901 -1.55874 2.12132 -2.12132 
C 1.55874 -2.683901 0.795609 -3 0 -3 
C -0.795609 -3 -1.55874 -2.683901 -2.12132 -2.12132 
C -2.683901 -1.55874 -3 -0.795609 -3 0 
C -3 0.795609 -2.683901 1.55874 -2.12132 2.12132 
C -1.55874 2.683901 -0.795609 3 0 3 
z
" style="stroke: #ffffff"/>
    </defs>
    <g>
     <use xlink:href="#mf61a9a595d" x="307.656406" y="413.94425" style="fill: #7a68b3; stroke: #ffffff"/>
    </g>
   </g>
   <g id="text_34">
    <!-- Per-task gate -->
    <g transform="translate(322.056406 416.74425) scale(0.08 -0.08)">
     <use xlink:href="#ArialMT-50"/>
     <use xlink:href="#ArialMT-65" transform="translate(66.699219 0)"/>
     <use xlink:href="#ArialMT-72" transform="translate(122.314453 0)"/>
     <use xlink:href="#ArialMT-2d" transform="translate(155.615234 0)"/>
     <use xlink:href="#ArialMT-74" transform="translate(188.916016 0)"/>
     <use xlink:href="#ArialMT-61" transform="translate(216.699219 0)"/>
     <use xlink:href="#ArialMT-73" transform="translate(272.314453 0)"/>
     <use xlink:href="#ArialMT-6b" transform="translate(322.314453 0)"/>
     <use xlink:href="#ArialMT-20" transform="translate(372.314453 0)"/>
     <use xlink:href="#ArialMT-67" transform="translate(400.097656 0)"/>
     <use xlink:href="#ArialMT-61" transform="translate(455.712891 0)"/>
     <use xlink:href="#ArialMT-74" transform="translate(511.328125 0)"/>
     <use xlink:href="#ArialMT-65" transform="translate(539.111328 0)"/>
    </g>
   </g>
   <g id="line2d_74">
    <path d="M 385.631406 413.94425 
L 393.631406 413.94425 
L 401.631406 413.94425 
" style="fill: none; stroke: #000000; stroke-opacity: 0; stroke-width: 1.5; stroke-linecap: square"/>
    <defs>
     <path id="m4642659342" d="M 0 3 
C 0.795609 3 1.55874 2.683901 2.12132 2.12132 
C 2.683901 1.55874 3 0.795609 3 0 
C 3 -0.795609 2.683901 -1.55874 2.12132 -2.12132 
C 1.55874 -2.683901 0.795609 -3 0 -3 
C -0.795609 -3 -1.55874 -2.683901 -2.12132 -2.12132 
C -2.683901 -1.55874 -3 -0.795609 -3 0 
C -3 0.795609 -2.683901 1.55874 -2.12132 2.12132 
C -1.55874 2.683901 -0.795609 3 0 3 
z
" style="stroke: #ffffff"/>
    </defs>
    <g>
     <use xlink:href="#m4642659342" x="393.631406" y="413.94425" style="fill: #38b7c9; stroke: #ffffff"/>
    </g>
   </g>
   <g id="text_35">
    <!-- AG-MoE -->
    <g transform="translate(408.031406 416.74425) scale(0.08 -0.08)">
     <use xlink:href="#ArialMT-41"/>
     <use xlink:href="#ArialMT-47" transform="translate(66.699219 0)"/>
     <use xlink:href="#ArialMT-2d" transform="translate(144.482422 0)"/>
     <use xlink:href="#ArialMT-4d" transform="translate(177.783203 0)"/>
     <use xlink:href="#ArialMT-6f" transform="translate(261.083984 0)"/>
     <use xlink:href="#ArialMT-45" transform="translate(316.699219 0)"/>
    </g>
   </g>
  </g>
 </g>
 <defs>
  <clipPath id="pe56c3b4e15">
   <rect x="41.999531" y="59.1675" width="209.81375" height="129.123943"/>
  </clipPath>
  <clipPath id="p7fe878be98">
   <rect x="297.544531" y="59.1675" width="209.81375" height="129.123943"/>
  </clipPath>
  <clipPath id="p90d295367a">
   <rect x="41.999531" y="217.291443" width="209.81375" height="129.123943"/>
  </clipPath>
 </defs>
</svg>
